<svg width="24" height="24" viewBox="0 0 24 24" fill="none" xmlns="http://www.w3.org/2000/svg">
<path d="M5 20H19C19.2833 20 19.521 20.096 19.713 20.288C19.905 20.48 20.0007 20.7173 20 21C20 21.2833 19.904 21.521 19.712 21.713C19.52 21.905 19.2827 22.0007 19 22H5C4.71667 22 4.47933 21.904 4.288 21.712C4.09667 21.52 4.00067 21.2827 4 21C4 20.7167 4.096 20.4793 4.288 20.288C4.48 20.0967 4.71733 20.0007 5 20ZM12 17.375C11.85 17.375 11.7043 17.3417 11.563 17.275C11.4217 17.2083 11.3007 17.1083 11.2 16.975L6.25 10.625C6 10.2917 5.96667 9.93767 6.15 9.563C6.33333 9.18833 6.63333 9.00067 7.05 9H9V3C9 2.71667 9.096 2.47933 9.288 2.288C9.48 2.09667 9.71733 2.00067 10 2H14C14.2833 2 14.521 2.096 14.713 2.288C14.905 2.48 15.0007 2.71733 15 3V9H16.95C17.3667 9 17.6667 9.18767 17.85 9.563C18.0333 9.93833 18 10.2923 17.75 10.625L12.8 16.975C12.7 17.1083 12.579 17.2083 12.437 17.275C12.295 17.3417 12.1493 17.375 12 17.375Z" fill="black"/>
</svg>
