<svg width="24" height="24" viewBox="0 0 24 24" fill="none" xmlns="http://www.w3.org/2000/svg">
<path d="M4 21C3.71667 21 3.47933 20.904 3.288 20.712C3.09667 20.52 3.00067 20.2827 3 20V17.575C3 17.3083 3.05 17.054 3.15 16.812C3.25 16.57 3.39167 16.3577 3.575 16.175L16.2 3.575C16.4 3.39167 16.621 3.25 16.863 3.15C17.105 3.05 17.359 3 17.625 3C17.8917 3 18.15 3.05 18.4 3.15C18.65 3.25 18.8667 3.4 19.05 3.6L20.425 5C20.625 5.18333 20.7707 5.4 20.862 5.65C20.9533 5.9 20.9993 6.15 21 6.4C21 6.66667 20.954 6.921 20.862 7.163C20.77 7.405 20.6243 7.62567 20.425 7.825L7.825 20.425C7.64167 20.6083 7.429 20.75 7.187 20.85C6.945 20.95 6.691 21 6.425 21H4ZM17.6 7.8L19 6.4L17.6 5L16.2 6.4L17.6 7.8Z" fill="black"/>
</svg>
