<svg width="15" height="14" viewBox="0 0 15 14" fill="none" xmlns="http://www.w3.org/2000/svg">
<path d="M4.4585 3.9L6.3787 1.40781C6.51586 1.22448 6.67885 1.08996 6.86767 1.00425C7.05649 0.918542 7.25354 0.875458 7.45882 0.875C7.66455 0.875 7.86183 0.918083 8.05065 1.00425C8.23947 1.09042 8.40223 1.22494 8.53893 1.40781L10.4591 3.9L13.3737 4.87969C13.6709 4.97135 13.9052 5.14048 14.0766 5.38706C14.2481 5.63365 14.3338 5.90567 14.3338 6.20312C14.3338 6.34062 14.3137 6.47813 14.2735 6.61563C14.2332 6.75313 14.1676 6.8849 14.0766 7.01094L12.1907 9.69219L12.2593 12.5109C12.2707 12.912 12.1393 13.25 11.865 13.525C11.5907 13.8 11.2706 13.9375 10.9049 13.9375C10.882 13.9375 10.7563 13.9203 10.5277 13.8859L7.45882 13.0266L4.38993 13.8859C4.33278 13.9089 4.26991 13.9233 4.20133 13.9293C4.13276 13.9352 4.06989 13.938 4.01274 13.9375C3.64699 13.9375 3.32696 13.8 3.05264 13.525C2.77833 13.25 2.64689 12.912 2.65832 12.5109L2.72689 9.675L0.858129 7.01094C0.766691 6.8849 0.700856 6.75313 0.660623 6.61563C0.62039 6.47813 0.600503 6.34062 0.60096 6.20312C0.60096 5.91667 0.68394 5.65038 0.8499 5.40425C1.01586 5.15813 1.2472 4.98327 1.54391 4.87969L4.4585 3.9Z" fill="black"/>
</svg>
